<svg xmlns="http://www.w3.org/2000/svg" width="600" height="100" viewBox="0 0 600 100">
  <metadata><?xpacket begin="﻿" id="W5M0MpCehiHzreSzNTczkc9d"?>
<x:xmpmeta xmlns:x="adobe:ns:meta/" x:xmptk="Adobe XMP Core 5.6-c138 79.159824, 2016/09/14-01:09:01        ">
   <rdf:RDF xmlns:rdf="http://www.w3.org/1999/02/22-rdf-syntax-ns#">
      <rdf:Description rdf:about=""/>
   </rdf:RDF>
</x:xmpmeta>
                                                                                                    
                                                                                                    
                                                                                                    
                                                                                                    
                                                                                                    
                                                                                                    
                                                                                                    
                                                                                                    
                                                                                                    
                                                                                                    
                                                                                                    
                                                                                                    
                                                                                                    
                                                                                                    
                                                                                                    
                                                                                                    
                                                                                                    
                                                                                                    
                                                                                                    
                                                                                                    
                           
<?xpacket end="w"?></metadata>
<defs>
    <style>
      .cls-1 {
        fill: #009100;
        fill-rule: evenodd;
      }
    </style>
  </defs>
  <path id="Kelly_s_Pub_Eatery" data-name="Kelly&apos;s Pub &amp; Eatery" class="cls-1" d="M12.708,40.491q0-.234.07-1.406t0.129-1.91q0.059-.738.176-2.637L13.4,31.374q0.129-1.289.223-2.086A10.807,10.807,0,0,1,14,27.53l0.234-.75-1.971.094q-0.964.047-1.7,0.094t-1.374.047q-1.41,0-3.995-.234l-1.1-.164,0.234,1.008q0,0.118.363,2.672t0.457,3.492q0.328,3.445.4,6.844l0.094,4.523q0,2.039-.023,5.566T5.537,55.866q-0.047,1.149-.105,1.98T5.3,59.651q-0.07.973-.117,1.816L5.092,63.3,6.971,63.2q0.164,0,.717-0.07t1.022-.117q0.47-.047.775-0.047,0.493,0,1.092.035T11.847,63.1q0.67,0.059,1.422.105L14.631,63.3l-0.4-1.1q-0.352-1.617-.8-5.719a51.566,51.566,0,0,1-.352-5.859V47.03l1.1,1.1a5.108,5.108,0,0,1,.773.914q0.656,0.867,1.3,1.676T17.8,52.608q0.89,1.078,1.875,2.156,1.148,1.149,2.18,2.4t1.969,2.4q0.937,1.149,2.133,2.391l1.2,1.336,1.828-.187q0.609-.047.961-0.07t0.586-.047q0.234-.023.8-0.023,1.148,0,2.59.117T35.842,63.2l2.109-.094-1.57-1.289q-0.984-.844-3.656-3.68t-5.766-6.211q-1.946-2.2-4-4.477a32.784,32.784,0,0,1-2.285-2.672q-0.188-.211-0.363-0.375a1.923,1.923,0,0,1-.293-0.34,0.72,0.72,0,0,1-.117-0.41,0.875,0.875,0,0,1,.176-0.539,2.271,2.271,0,0,1,.48-0.457q0.3-.223.68-0.48l0.82-.773q0.82-.726,1.793-1.676t2.121-2.086q1.148-1.137,2.18-2.145,1.523-1.429,5.039-4.559t3.609-3.27l1.008-1.008-1.2.117q-0.914.047-2.145,0.141t-2.027.094q-0.539-.023-1.055-0.07T30.4,26.862l-1.1-.082-0.609-.117q-3.234,3.422-4.172,4.476-2.461,2.649-8.11,8.3-0.938.961-1.981,2.016t-1.723,1.641v-2.6Zm47.954,10.43a18.886,18.886,0,0,0,3.551-.223,7.928,7.928,0,0,1,1.676-.223q0.656,0.024,1.348.105t1.535,0.211q0.844,0.129,1.547.223l1.2,0.094,1.055-3.656V45.343a5.453,5.453,0,0,0-.691-2.449,9.743,9.743,0,0,0-1.793-2.449,8.447,8.447,0,0,0-3.562-2.168,12.091,12.091,0,0,0-3.609-.715H60.9l-1.969.352q-0.75.117-2.988,0.387t-3.551.563a10.842,10.842,0,0,0-5.109,2.684,16.2,16.2,0,0,0-3.621,4.5,10.325,10.325,0,0,0-1.277,4.875v3.07a8.54,8.54,0,0,0,.645,3.152,10.038,10.038,0,0,0,1.793,2.941,8.606,8.606,0,0,0,2.461,1.9,9.528,9.528,0,0,0,2.813.891,22.682,22.682,0,0,0,3.469.234h2.25a6.327,6.327,0,0,0,1.16-.164,6.615,6.615,0,0,1,1.3-.164,8.673,8.673,0,0,1,1.348.117,7.694,7.694,0,0,0,1.043.117h8.109l0.352-.82a9.162,9.162,0,0,1,.375-1.02q0.211-.48.492-1.043t0.563-1.148q0.75-1.5,1.605-3.035t0.949-1.629l0.422-1.1-0.773.422q-0.516.3-2.5,1.523a32.007,32.007,0,0,1-3.6,1.945,37.646,37.646,0,0,1-4.055,1.582,14.084,14.084,0,0,1-2.812.762h-1.43a13.8,13.8,0,0,1-1.43-.187,12.1,12.1,0,0,1-2.355-.633,4.892,4.892,0,0,1-1.887-1.2,7.261,7.261,0,0,1-1.418-2.812,11.568,11.568,0,0,1-.551-2.367V50.921h9.938Zm-7.617-3.469H51.5l0.328-1.664a2.9,2.9,0,0,1,.762-1.2,17.15,17.15,0,0,1,1.465-1.453,12.731,12.731,0,0,1,2.051-1.23,5.786,5.786,0,0,1,1.348-.551h0.82a7.341,7.341,0,0,1,1.16.2,9.515,9.515,0,0,1,1.781.586,4.54,4.54,0,0,1,1.465,1,4.588,4.588,0,0,1,1,1.219,2.722,2.722,0,0,1,.457,1.078V46.21l-0.164.82ZM86.936,63.108a10.522,10.522,0,0,0,4.992-.141l0.844-.492L94.6,57.014l-1.1.281a15.456,15.456,0,0,0-1.5.387q-0.984.293-1.2,0.34a16.956,16.956,0,0,1-3.023.422l-0.7-.516-0.047-1.734-0.3-4.664V43.655q0-.281.316-3.316T87.5,35.452a37.227,37.227,0,0,1,.656-4.605q0.492-2.426.586-2.637l0.141-1.594-1.57.4a15.908,15.908,0,0,1-2.062.387q-0.938.106-1.969,0.129-2.063,0-3.422-.047l-1.43-.187,0.281,1.453q0.07,0.375.2,0.9t0.246,1.16q0.141,0.61.223,0.984t0.164,0.9a7.107,7.107,0,0,1,.082,1.09V49.139q0,0.258-.187,2.918T79.2,55.866a35.829,35.829,0,0,1-1.1,6.914l-0.4,1.8,1.547-.422,5.086-1.781h0.633Zm20.882,0a10.526,10.526,0,0,0,4.993-.141l0.843-.492,1.828-5.461-1.1.281a15.427,15.427,0,0,0-1.5.387q-0.984.293-1.195,0.34a16.966,16.966,0,0,1-3.024.422l-0.7-.516-0.047-1.734-0.305-4.664V43.655q0-.281.317-3.316t0.457-4.887a37.243,37.243,0,0,1,.656-4.605q0.492-2.426.586-2.637l0.141-1.594-1.571.4a15.9,15.9,0,0,1-2.062.387q-0.937.106-1.969,0.129-2.062,0-3.422-.047L99.311,27.3l0.281,1.453q0.07,0.375.2,0.9t0.246,1.16q0.141,0.61.223,0.984t0.164,0.9a7.171,7.171,0,0,1,.082,1.09V49.139q0,0.258-.188,2.918t-0.234,3.809a35.86,35.86,0,0,1-1.1,6.914l-0.4,1.8,1.547-.422,5.086-1.781h0.633Zm29.355,1.148-0.727,1.734a8.436,8.436,0,0,1-.786,1.453,10.5,10.5,0,0,1-1.512,1.992,21.623,21.623,0,0,1-1.888,1.559,2.677,2.677,0,0,1-1.512.6H129.34a2.8,2.8,0,0,1-1.747-.773,5.239,5.239,0,0,1-1.958-4.453A12.749,12.749,0,0,1,126.9,61a9.661,9.661,0,0,1,1.689-2.426q1.149-1.254,1.618-1.746l0.376-.82-1.1.141q-0.516.047-.75,0.094t-0.54.141q-0.3.094-.516,0.141-0.492.047-1.219,0.176a7.7,7.7,0,0,1-1.337.129l-1.384-.047-0.867.844a14.529,14.529,0,0,0-1.29,1.969,19.425,19.425,0,0,0-1.407,2.883,16.18,16.18,0,0,0-1.384,5.3v1.055a7.775,7.775,0,0,0,.328,2.1A5.856,5.856,0,0,0,120.171,73a6.828,6.828,0,0,0,1.325,1.266,4.487,4.487,0,0,0,1.536.68,8.473,8.473,0,0,0,1.993.211H126.9a16.641,16.641,0,0,0,2.791-.281,11.017,11.017,0,0,0,1.372-.387,6.641,6.641,0,0,1,1.536-.34l0.915-.141a26.838,26.838,0,0,0,3.6-.633,9.5,9.5,0,0,0,2.9-1.383,11.467,11.467,0,0,0,2.732-2.426,8.324,8.324,0,0,0,1.442-3.152l0.634-2.016q0.186-.68,1.712-4.547t2.744-6.586q1.054-2.226,1.91-3.937t1.525-2.953q0.667-1.242,2.028-3.656t1.5-2.648l1.149-1.969H149.6l-0.469,1.008q-0.165.3-1.83,3.293t-2.579,4.863q-0.282.586-1.618,3.727T141.7,54.225l-1.454,2.6-0.282-4.148a28.337,28.337,0,0,0-.633-6.516,22.505,22.505,0,0,0-1.525-4.359,29.241,29.241,0,0,0-1.407-2.883l-0.469-.773-0.914.094q-1.268.047-2.252,0.094t-1.782.047q-0.75,0-3.471-.094l-1.1-.047-0.469.633q-1.572,1.875-1.97,2.3-0.445.539-2.7,2.883l-0.727.82,1.266-.141a26.278,26.278,0,0,1,3.073-.4q1.5-.164,3.212-0.234,0.657-.093.762-0.117a1.453,1.453,0,0,1,.294-0.023,1.6,1.6,0,0,1,.68.141,1.13,1.13,0,0,1,.387.586,2.172,2.172,0,0,1,.129.563l0.961,3.117a21.4,21.4,0,0,1,.516,2.848,31.807,31.807,0,0,1,.305,3.832q0,1.383-.07,2.531t-0.211,2.309q-0.141,1.16-.258,2.449l-0.141,1.1,0.915-.281q0.657-.164,1.067-0.293a6.415,6.415,0,0,1,.809-0.2q1.806-.328,2.064-0.328h1.407Zm26.5-37.594a23.221,23.221,0,0,1-2.883-.187q0.446,2.391.867,5.719,0.423,3.234.586,6.188,0.352,0,.985-0.047c0.422-.031.718-0.047,0.89-0.047a4.819,4.819,0,0,1,1.875.141q-0.093-2.484-.093-6.469a54.576,54.576,0,0,1,.515-5.484,20.7,20.7,0,0,1-2.742.188h0Zm34.594,15.115a5.746,5.746,0,0,0-.657-1.437,4.051,4.051,0,0,0-1.289-1.331,7.751,7.751,0,0,0-4.429-1.589h-2.766q-0.351.024-1.055,0.105t-1.265.2q-0.469.141-.938,0.3c-0.312.109-.555,0.2-0.726,0.258l-2.274-.234h-1.383a19.285,19.285,0,0,0-3.351.49,9.052,9.052,0,0,0-3.75,1.564,14.476,14.476,0,0,0-1.875,1.508,6.4,6.4,0,0,0-1.324,1.765,4.791,4.791,0,0,0-.5,2.081l-0.047.587q0,2.961,3.258,5.1a9.433,9.433,0,0,0,4.8.969q0.4-.023.68-0.035c0.188-.008.328-0.012,0.422-0.012h1.922a9.43,9.43,0,0,1,.937-0.117,17.063,17.063,0,0,1,1.852-.117,13.527,13.527,0,0,1,3.305.229,3.95,3.95,0,0,1,1.921.727,1.665,1.665,0,0,1,.54,1.055v0.469a4.889,4.889,0,0,1-1.922,3.471,6.546,6.546,0,0,1-2.11,1.29,6.025,6.025,0,0,1-2.109.469h-1.008q-2.484,0-3.375-1.2a2.629,2.629,0,0,1-.562-1.734c0-.109.011-0.285,0.035-0.527s0.05-.472.082-0.691,0.054-.429.07-0.633l0.094-.586h-5.32l-3.8-.492-0.141,2.461a7.14,7.14,0,0,0,2.25,4.9,8.429,8.429,0,0,0,3.117,1.652,10.793,10.793,0,0,0,2.883.6h1.734c0.172-.016.329-0.031,0.469-0.047l0.4-.047,0.445-.059q0.258-.035.492-0.082a3.553,3.553,0,0,0,.891-0.211,2.772,2.772,0,0,1,.843-0.187h1.1l2.367,0.164a15.047,15.047,0,0,0,4.184-.751,9.746,9.746,0,0,0,4.066-2.276q3.212-3.05,3.211-6.264V51.519a3.907,3.907,0,0,0-.48-1.6,5.065,5.065,0,0,0-1.207-1.619,4.444,4.444,0,0,0-1.84-1.085,6.53,6.53,0,0,0-1.934-.354h-2.32a27.269,27.269,0,0,0-3.445.334,13.632,13.632,0,0,0-1.641.2q-1.032.173-1.148,0.173h-0.61a5.2,5.2,0,0,1-2.789-.6,4.933,4.933,0,0,0-.516-0.3,2.982,2.982,0,0,1-.515-0.328,1.588,1.588,0,0,1-.305-0.363,1.089,1.089,0,0,1-.164-0.5v-0.75a2,2,0,0,1,.656-1.183,8.959,8.959,0,0,1,1.547-1.323,7.918,7.918,0,0,1,1.465-.654,5.1,5.1,0,0,1,1.09-.3h0.773a8.7,8.7,0,0,1,1.43.187,3.967,3.967,0,0,1,1.547.584q1.781,1.145,1.781,2.009v0.724h0.61a13.781,13.781,0,0,0,1.945-.163q1.125-.164,1.57-0.187c0.406,0,.723,0,0.949.012s0.5,0.02.809,0.035,0.586,0.035.82,0.058,0.367,0.035.4,0.035l1.523,0.093-0.14-1.659Q198.428,42.4,198.264,41.778Zm29.484,7.455a13.713,13.713,0,0,0,3.024.281,23.486,23.486,0,0,0,5.261-.609,11.874,11.874,0,0,0,4.535-2.016,16.984,16.984,0,0,0,4.418-4.535,10.055,10.055,0,0,0,1.536-5.5V34.843a9.55,9.55,0,0,0-.622-2.789,8.554,8.554,0,0,0-1.7-3.023,8.109,8.109,0,0,0-3.574-2.074,13.423,13.423,0,0,0-3.762-.668h-2.7q0.071,0-3.27.293t-5.753.293h-2.391q-2.461,0-3.926-.047t-3.574-.211l-1.289-.141,0.586,1.055a18.719,18.719,0,0,1,1.429,3.281,15.15,15.15,0,0,1,.528,2.7q0.151,1.43.222,2.859t0.071,3.3v4.336q0.023,0.75.047,1.547t0.047,1.43q0.023,0.633.035,1.043t0.011,1.254q0,0.657-.093,2.25-0.071,1.547-.118,2.941t-0.14,2.66q-0.095,1.266-.281,2.578a17.7,17.7,0,0,1-.516,2.438l-0.281,1.1,1.851-.094q0.07,0,1.125-.141a13.54,13.54,0,0,1,1.711-.141q0.915,0,1.957.082t1.653,0.141q0.609,0.059.773,0.059H226.3l-0.281-1.008q-0.47-2.437-.821-4.945-0.187-1.711-.281-3.785t-0.094-2.754v-2.25Zm-2.976-3.75V40.444a26.226,26.226,0,0,1,.363-3.41,10.169,10.169,0,0,1,1.324-3.926q2.087-3.211,4.828-3.211h1.172a4.946,4.946,0,0,1,3.914,1.922,5.124,5.124,0,0,1,.9,1.91,8.3,8.3,0,0,1,.364,1.629V35.8a9.748,9.748,0,0,1-1.032,4.172,10.03,10.03,0,0,1-6.234,5.508,10.578,10.578,0,0,1-3.07.68h-1.758Zm49.007,17.531h1.688l2.25-.094a7.01,7.01,0,0,1,.961-0.047q0.8,0,1.769.082t1.243,0.117a3.413,3.413,0,0,0,.41.035h1.054l-0.257-.82a5.2,5.2,0,0,0-.258-0.727q-0.165-.375-0.352-0.844a21.123,21.123,0,0,1-.328-4.2V51.577q0-.187.141-1.523t0.375-3.246q0.234-1.91.422-2.754,0.281-1.218.55-2.6t0.41-2.016l0.446-1.43-1.406.141q-0.822.094-1.348,0.176t-1.113.141q-0.586.059-1.266,0.059a22.3,22.3,0,0,1-3.656-.328l-1.149-.141,0.094,1.148q0-.164.141,1.875,0.046,0.61.117,1.289t0.07,0.867v4.453a11.952,11.952,0,0,1-.375,2.508,15.341,15.341,0,0,1-1.336,3.492,10.348,10.348,0,0,1-2.039,2.754,11.757,11.757,0,0,1-2.59,1.945,5.2,5.2,0,0,1-2.191.738l-0.82.094a6.427,6.427,0,0,1-3.75-1.594,6,6,0,0,1-1.407-2.262,6.746,6.746,0,0,1-.515-2.1V51.343a6.585,6.585,0,0,1,1.031-3.434,21.167,21.167,0,0,1,2.859-3.527,20.508,20.508,0,0,1,2.086-1.7q1.219-.879,2.367-1.582t2-1.184q0.857-.48,1.09-0.621l1.008-.914H269.42q-0.375,0-.691.023c-0.211.016-.5,0.032-0.856,0.047s-0.773.039-1.242,0.07q-2.109.07-4.172,0.188t-2.391.117h-4.476l-3.211-.352-2.156,4.992,0.914-.187q0.913-.211,1.617-0.328c0.359-.015.676-0.035,0.949-0.059s0.613-.035,1.02-0.035h0.726l-0.961,1.2a11.752,11.752,0,0,0-2.25,3.117,13.181,13.181,0,0,0-1.008,3.023,14.532,14.532,0,0,0-.4,2.344v1.547a9.251,9.251,0,0,0,.773,3.48,10.266,10.266,0,0,0,2.2,3.34,7.694,7.694,0,0,0,3.175,1.934,10.4,10.4,0,0,0,2.637.645h1.008a12.522,12.522,0,0,0,1.383-.164,6.606,6.606,0,0,0,1.781-.492,10.868,10.868,0,0,1,4.336-.773l0.609-.047q0.4-.023,1.16-0.082a5.8,5.8,0,0,0,1.4-.27c0.172-.047.355-0.1,0.551-0.164s0.332-.1.41-0.117l1.383-.234h0Zm24.493-25.289q0-.469.328-4.2,0.117-2.062.257-3.832t0.235-2.262l0.14-.961a42.261,42.261,0,0,0-5.765.351,35.955,35.955,0,0,0-5.953.914l0.633,0.75a9.506,9.506,0,0,1,1.523,2.836,18.292,18.292,0,0,1,.727,5.625l0.187,4.641q0-.234.047,2.8T290.7,48.2q0.024,0.773.024,1.9-0.024,1.711-.153,3.352t-0.222,2.52q-0.095.879-.422,3.164t-0.446,3.012l-0.234,1.828,5.086-2.25,2.3,0.938a8.755,8.755,0,0,0,2.074.6,17.236,17.236,0,0,0,2.309.129,11.342,11.342,0,0,0,4.312-1.055q0.234-.023,1.324-0.187a20.223,20.223,0,0,0,2.157-.445,15.076,15.076,0,0,0,2.648-1.055,12.469,12.469,0,0,0,2.942-2.016,14.517,14.517,0,0,0,1.957-2.18,12.214,12.214,0,0,0,1.336-2.32,13.268,13.268,0,0,0,.785-2.52A12.815,12.815,0,0,0,318.756,49V47.218a14.188,14.188,0,0,0-.3-3.234,8.185,8.185,0,0,0-1.172-2.578,9.617,9.617,0,0,0-1.839-1.957,8.341,8.341,0,0,0-2.168-1.254,6.458,6.458,0,0,0-2.18-.469h-1.781a9.121,9.121,0,0,0-1.079.152q-0.867.153-1.71,0.363a5.882,5.882,0,0,0-1.055.4,3.128,3.128,0,0,1-1.1.328l-1.148.047a11.462,11.462,0,0,0-2.6.234,2.2,2.2,0,0,0-.574.27,3.069,3.069,0,0,1-.668.316l-1.1.375V37.725ZM306.943,58A4.53,4.53,0,0,1,305,59.405h-0.961a6.276,6.276,0,0,1-1.582-.434,16.081,16.081,0,0,1-2.168-.949,16,16,0,0,1-2.062-1.512,2.314,2.314,0,0,1-.868-1.043V54.554a24.027,24.027,0,0,1,.586-2.895,20.343,20.343,0,0,1,1.289-3.973,9.757,9.757,0,0,1,1.665-2.414,19.915,19.915,0,0,1,2.179-2.1,4.9,4.9,0,0,1,1.336-.9h0.68a6.5,6.5,0,0,1,2.2.773,5.918,5.918,0,0,1,3.164,3.527,5.369,5.369,0,0,1,.352,1.652v1.781a10.594,10.594,0,0,1-1.641,5.227A12.62,12.62,0,0,1,306.943,58Zm39.118-31.523H343.9a5.852,5.852,0,0,0-2.66.9,9.341,9.341,0,0,0-4.148,4.957,8.109,8.109,0,0,0-.574,2.789v1.1a10.718,10.718,0,0,0,.773,3.844,9.47,9.47,0,0,0,1.969,3.586l0.562,0.586a0.924,0.924,0,0,1,.281.68,1.064,1.064,0,0,1-.609.75l-0.68.586a9.44,9.44,0,0,0-1.066,1.148,11.726,11.726,0,0,0-1.418,1.922,19.069,19.069,0,0,0-1.312,2.555,5.744,5.744,0,0,0-.422,2.156v1.289a6.528,6.528,0,0,0,.527,2.531,10.288,10.288,0,0,0,1.535,2.508,8.661,8.661,0,0,0,2.719,2.1,6.519,6.519,0,0,0,2.859.832h2.977a9.491,9.491,0,0,0,1.125-.094,9.647,9.647,0,0,1,1.172-.094q1.054,0,2.765.141t1.9,0.141l1.9-.047q0.469-.047.727-0.094a4.264,4.264,0,0,0,.574-0.152,5.008,5.008,0,0,1,.715-0.176q0.4-.117.762-0.258a5.158,5.158,0,0,1,.55-0.187c0.047-.015.164-0.066,0.352-0.152a1.251,1.251,0,0,1,.516-0.129,0.771,0.771,0,0,1,.433.152,4.492,4.492,0,0,1,.41.316l1.219,0.82,1.008-.094a10.111,10.111,0,0,1,1.828-.141q0.656,0,1.137.012t1.066,0.035q1.218,0,3.082.082t2.3,0.117q0.433,0.035.621,0.035h1.617l-0.843-.75q-0.844-.726-1.512-1.2T368.3,59.991q-4.524-3.046-4.571-3.07-0.14-.093-0.246-0.152t-0.234-.141a1.06,1.06,0,0,1-.223-0.187,1.147,1.147,0,0,1-.164-0.246,1.416,1.416,0,0,1,.164-0.68,3.612,3.612,0,0,1,.446-0.633,2.91,2.91,0,0,0,.351-0.469q0.375-.726.844-1.652t0.961-2.2a16.137,16.137,0,0,0,.75-2.52A46.5,46.5,0,0,0,366.9,40.3V39.343q-0.7.047-1.219,0.094t-1.02.07q-0.5.024-1.207,0.07h-3.89v4.2a20.231,20.231,0,0,1-1.008,4.641,8.843,8.843,0,0,1-1.2,3.07,1,1,0,0,1-.632.539,1.1,1.1,0,0,1-.493-0.129,1.888,1.888,0,0,1-.492-0.363q-0.234-.234-0.351-0.328l-3.938-3.023a1.014,1.014,0,0,1-.351-0.961,1.487,1.487,0,0,1,.586-0.914l1.781-1.008a16.153,16.153,0,0,0,1.465-1.348,14.182,14.182,0,0,0,1.793-2.051,14.218,14.218,0,0,0,1.371-2.977,8.614,8.614,0,0,0,.5-2.555V35.218a10.283,10.283,0,0,0-.539-2.7,7.479,7.479,0,0,0-1.477-2.836,8.3,8.3,0,0,0-1.769-1.465A9.031,9.031,0,0,0,352.8,27.3a5.96,5.96,0,0,0-1.7-.328l-1.571.141Zm4.289,6.34a3.358,3.358,0,0,1,.328,1.254l0.047,1.383a7.764,7.764,0,0,1-1.641,3.75,12.335,12.335,0,0,1-1.055,1.441,2.738,2.738,0,0,1-.914.809l-0.609.141a0.681,0.681,0,0,1-.445-0.34,6.26,6.26,0,0,1-.586-1.008q-0.329-.668-0.469-0.949a11.652,11.652,0,0,1-.8-3.3v-1.1a5.515,5.515,0,0,1,.961-3.023q1.218-1.734,2.156-1.734H347.8a1.8,1.8,0,0,1,.785.457,5.958,5.958,0,0,1,.949.926A4.635,4.635,0,0,1,350.35,32.815Zm1.289,24.527v0.727l-0.633.516a8.033,8.033,0,0,1-1.664.949,4.96,4.96,0,0,1-2.016.457,3.748,3.748,0,0,1-1.265-.234,4.468,4.468,0,0,1-2.051-2.062,5.665,5.665,0,0,1-.809-2.039v-0.7a7.849,7.849,0,0,1,.563-1.687,7.344,7.344,0,0,1,.375-0.8,1.435,1.435,0,0,1,.351-0.539h0.516a5.1,5.1,0,0,1,1.312,1.125q1.125,1.125,1.383,1.359,1.429,1.149,3.164,2.414Zm47.789-24.586h7.336q0.656,0,3.093.187,0.82,0,1.348.012t1.184,0.035h1.195l0.047-.777a8.927,8.927,0,0,1,.445-2.353,19.222,19.222,0,0,1,.961-2.89l0.375-1.011-1.148.328a20.578,20.578,0,0,1-3.211.715q-1.712.246-4.1,0.352t-3.961.129q-2.6,0-6.457-.234t-4.98-.422l-2.016-.445,0.445,1.148a28.817,28.817,0,0,1,1.125,5.039q0.375,2.742.469,5.156t0.211,7.711q0,3.047-.012,5.016t-0.093,3.926q-0.082,1.957-.258,3.938t-0.387,3.105L390.686,63.3l1.546-.281q2.391-.281,4.278-0.34t5.215-.059q3.938,0,6.211.07t5.32,0.328l1.476,0.188-0.046-.867a10.653,10.653,0,0,1-.282-2.789,23.674,23.674,0,0,1,.094-2.625l0.188-1.008-0.75.284q-1.477.4-2.321,0.678a29.8,29.8,0,0,1-3.8.468h-8.062V56.01l-0.234-8.3h3.984q0.4,0,2.156.117t3.516,0.187a37,37,0,0,1,3.8.327l1.195,0.142V46.035a11.744,11.744,0,0,1,.141-2.024,2.927,2.927,0,0,1,.187-0.565,3.285,3.285,0,0,0,.188-0.541l0.257-1.359-1.007.258q-1.876.469-2.661,0.621t-1.3.211l-1.571.176q-0.913.093-3.07,0.093-1.266,0-2.812-.047t-1.454-.047h-1.64V32.757ZM441.24,63.3h0.68a22.042,22.042,0,0,1,2.977-.328q0.538,0,1.324.035l1.558,0.07q0.774,0.035,1.336.035h0.914L449.8,62.1q-0.071-.4-0.152-0.762t-0.106-.5q-0.024-.141-0.1-0.574t-0.176-.809q-0.211-1.2-.34-2.906t-0.129-1.9V51.436a39.013,39.013,0,0,1,.68-6.609q0.234-1.734,1.336-6.164l0.328-1.1-0.563.047q-0.139.07-.761,0.363t-1.1.5a8.721,8.721,0,0,1-.937.352q-0.457.141-.739,0.2t-0.8.223l-1.2.422q-1.266-.469-1.828-0.609a19.3,19.3,0,0,0-3.4-.68h-2.555l-2.672.539h-3.422a9.105,9.105,0,0,0-2.262.4,17.551,17.551,0,0,0-2.964,1.137,11.4,11.4,0,0,0-2.789,1.91,11.744,11.744,0,0,0-2.954,4.2,13.278,13.278,0,0,0-1.125,4.781l-0.093,1.875a11.5,11.5,0,0,0,1.476,5.52,9.027,9.027,0,0,0,1.946,2.449,10.577,10.577,0,0,0,2.835,1.922,8.1,8.1,0,0,0,3.3.633h1.2a4.389,4.389,0,0,0,.739-0.059,5.017,5.017,0,0,0,.574-0.129q0.234-.07.7-0.164c0.188-.047.445-0.11,0.774-0.187s0.656-.152.984-0.223a4.1,4.1,0,0,1,.633-0.105l2.789,0.094a6.7,6.7,0,0,0,1.547-.352q0.188-.07.5-0.164a3.317,3.317,0,0,0,.55-0.211,1.923,1.923,0,0,0,.375-0.234l1.008-.586h0ZM427.8,54.706a14.174,14.174,0,0,1-.363-2.684V51.2a9.755,9.755,0,0,1,2.062-5.18,9.935,9.935,0,0,1,1.676-1.828,14.8,14.8,0,0,1,2.074-1.559,3.394,3.394,0,0,1,1.383-.6H435.4a7.116,7.116,0,0,1,3.633,1.289,7.337,7.337,0,0,1,1.992,1.828,5.39,5.39,0,0,1,1.078,1.734l0.047,0.7a15.077,15.077,0,0,1-.8,3.047,15.646,15.646,0,0,1-1.781,3.914,14.065,14.065,0,0,1-2.051,2.32,15.711,15.711,0,0,1-2.343,1.781,5.4,5.4,0,0,1-1.7.8H432.8a4.289,4.289,0,0,1-1.781-.527,6.244,6.244,0,0,1-1.875-1.395A5.853,5.853,0,0,1,427.8,54.706Zm32.168-15.785h-1.922l-2.93-.141a17.691,17.691,0,0,0-.609,2.531,15.707,15.707,0,0,0-.3,2.93l2.508-.375h1.242l-0.047.469a6.668,6.668,0,0,1-.187,1.031q-0.165.68-.4,1.8l-0.375,2.438v2.32a27.184,27.184,0,0,0,.305,2.813,14.676,14.676,0,0,0,1.031,3.844,10.023,10.023,0,0,0,2.4,3.48,5.035,5.035,0,0,0,3.457,1.23h0.773a4.634,4.634,0,0,0,.551-0.035l0.586-.07a4.642,4.642,0,0,1,.551-0.035q0.256,0,.632.035l0.739,0.07q0.363,0.035.644,0.035h4.946l3.937-.281,0.094-1.008a14.174,14.174,0,0,1,.82-2.648,14.29,14.29,0,0,1,.762-1.828q0.5-1.031.621-1.336l0.328-1.008-0.867.375q-0.094.094-1.418,1t-2.356,1.465a22.135,22.135,0,0,1-4.335,2.016h-0.915a2.909,2.909,0,0,1-2.027-1.184,8.767,8.767,0,0,1-1.652-2.66,12.241,12.241,0,0,1-.715-2.648,15.745,15.745,0,0,1-.246-1.969V48.6a11.941,11.941,0,0,1,.328-2.719q0.211-.679.539-1.5l0.328-.773h0.82l5.274,0.4,4.711,0.141q0.914-2.3,1.148-2.789,0.423-1.148,1.383-3.164l-1.008.094q-2.2.375-3.679,0.492-2.649.235-4.1,0.234h-1.945l0.843-1.242a8.328,8.328,0,0,1,1.2-1.312q1.172-1.172,2.133-1.969,0.444-.375,1.464-1.125t2.25-1.594q1.232-.844,1.231-0.867l0.7-.633-1.805.047q-0.21,0-2.66.234t-3.972.352q-0.985.094-2.579,0.258t-2.6.164h-0.68l-0.375.586a27.95,27.95,0,0,0-2.062,2.977q-0.54.867-1.172,1.992t-0.8,1.406h0Zm42.234,12a18.886,18.886,0,0,0,3.551-.223,7.924,7.924,0,0,1,1.676-.223q0.656,0.024,1.347.105t1.536,0.211q0.843,0.129,1.546.223l1.2,0.094,1.054-3.656V45.343a5.448,5.448,0,0,0-.691-2.449,9.748,9.748,0,0,0-1.793-2.449,8.446,8.446,0,0,0-3.562-2.168,12.1,12.1,0,0,0-3.61-.715h-2.015l-1.969.352q-0.75.117-2.988,0.387t-3.551.563a10.845,10.845,0,0,0-5.11,2.684,16.224,16.224,0,0,0-3.621,4.5,10.334,10.334,0,0,0-1.277,4.875v3.07a8.539,8.539,0,0,0,.645,3.152,10.037,10.037,0,0,0,1.792,2.941,8.618,8.618,0,0,0,2.461,1.9,9.534,9.534,0,0,0,2.813.891,22.685,22.685,0,0,0,3.469.234h2.25a6.337,6.337,0,0,0,1.16-.164,6.614,6.614,0,0,1,1.3-.164,8.665,8.665,0,0,1,1.347.117,7.7,7.7,0,0,0,1.043.117h8.11l0.351-.82a9.262,9.262,0,0,1,.375-1.02q0.212-.48.492-1.043t0.563-1.148q0.75-1.5,1.605-3.035t0.95-1.629l0.421-1.1-0.773.422q-0.516.3-2.5,1.523a32.062,32.062,0,0,1-3.6,1.945,37.647,37.647,0,0,1-4.054,1.582,14.085,14.085,0,0,1-2.813.762H499.9a13.793,13.793,0,0,1-1.429-.187,12.1,12.1,0,0,1-2.356-.633,4.9,4.9,0,0,1-1.887-1.2,7.25,7.25,0,0,1-1.417-2.812,11.527,11.527,0,0,1-.551-2.367V50.921H502.2Zm-7.617-3.469h-1.547l0.328-1.664a2.9,2.9,0,0,1,.762-1.2,17.137,17.137,0,0,1,1.465-1.453,12.72,12.72,0,0,1,2.051-1.23,5.785,5.785,0,0,1,1.347-.551h0.821a7.36,7.36,0,0,1,1.16.2,9.523,9.523,0,0,1,1.781.586,4.543,4.543,0,0,1,1.465,1,4.6,4.6,0,0,1,1,1.219,2.717,2.717,0,0,1,.457,1.078V46.21l-0.164.82Zm39.07,10.219q0.563,0.188,2.485.973t2.976,1.3q1.032,0.492,2.825,1.43t2.027,1.008q0.351,0.188.68,0.352t0.6,0.27a2.737,2.737,0,0,0,.551.152,6.435,6.435,0,0,0,1.922.234h3.844a16.822,16.822,0,0,0,3.257-.328,10.854,10.854,0,0,0,1.711-.27,3.944,3.944,0,0,0,.985-0.316l0.422-.234-0.727-.328q-1.2-.539-2.109-1.066t-1.84-1.1q-0.927-.574-2.1-1.254-1.359-.867-2.566-1.617t-1.231-.773a1.186,1.186,0,0,1-.351-0.363,0.955,0.955,0,0,1-.211-0.551,0.492,0.492,0,0,1,.211-0.352q0.188-.141.4-0.281,0.024-.023,1.219-0.633a17.043,17.043,0,0,0,2.262-1.383,7.8,7.8,0,0,0,1.722-1.664,13.338,13.338,0,0,0,1.641-2.848,6.8,6.8,0,0,0,.609-2.543l-0.047-.7a10.193,10.193,0,0,0-.574-2.52,6.408,6.408,0,0,0-1.394-2.332,6.544,6.544,0,0,0-2.52-1.594,7.64,7.64,0,0,0-2.285-.609H545.3c0.031,0-.281.039-0.938,0.117s-1.031.117-1.125,0.117a10.507,10.507,0,0,0-1.593.457q-0.869.316-.891,0.316h-0.68q-0.962.047-4.547,0.656a5.381,5.381,0,0,0-1.558.539q-0.9.445-1,.469l-0.727.586-0.187-.867a3.31,3.31,0,0,0-.071-0.375c-0.031-.125-0.058-0.246-0.082-0.363s-0.051-.238-0.082-0.363q-0.024-.141-0.234-1.242l-0.961.234a30.765,30.765,0,0,1-4.57.656q-1.266.164-1.981,0.234t-1.3.094q-0.585.024-2.39,0.023l-2.063-.094,0.727,0.7a8.59,8.59,0,0,0,1.148.832q0.633,0.387,1.2.762a11.452,11.452,0,0,1,1.265,1.008,6.172,6.172,0,0,1,1.57,2.414,7.136,7.136,0,0,1,.586,2.25v6.422q0,0.235-.07,1.465T524.49,58.8q-0.187,1.571-.4,3.727L524,63.108h1.383c-0.032,0,.121-0.012.457-0.035s0.816-.054,1.441-0.094,1-.059,1.125-0.059q0.867,0,2.192.047c0.882,0.032,1.418.063,1.605,0.094l0.633,0.047-0.141-.773q0-.093-0.3-1.383-0.236-1.828-.235-1.922V57.108Zm-1.312-3.586v-1.1a10.752,10.752,0,0,1,.387-1.652,24.183,24.183,0,0,1,1.089-3.035,11.188,11.188,0,0,1,1.547-2.672,13.856,13.856,0,0,1,2.813-2.461,8.143,8.143,0,0,1,2.3-1.312H540.9a5.292,5.292,0,0,1,1.277.4,7.864,7.864,0,0,1,1.465.7,2.7,2.7,0,0,1,1.523,2.156v0.563a5.99,5.99,0,0,1-.562,2.438,9.464,9.464,0,0,1-1.606,2.438,9.08,9.08,0,0,1-2.332,1.9,17.1,17.1,0,0,1-4.078,1.629,20.944,20.944,0,0,1-3.023.738,5.048,5.048,0,0,1-.961-0.047,1.025,1.025,0,0,1-.258-0.68h0Zm47.191,10.172-0.727,1.734a8.6,8.6,0,0,1-.786,1.453,10.538,10.538,0,0,1-1.513,1.992,21.623,21.623,0,0,1-1.888,1.559,2.677,2.677,0,0,1-1.512.6H571.7a2.8,2.8,0,0,1-1.748-.773,5.246,5.246,0,0,1-1.958-4.453A12.735,12.735,0,0,1,569.261,61a9.628,9.628,0,0,1,1.688-2.426q1.149-1.254,1.619-1.746l0.375-.82-1.1.141q-0.518.047-.751,0.094t-0.54.141q-0.3.094-.515,0.141-0.493.047-1.22,0.176a7.686,7.686,0,0,1-1.337.129L566.1,56.78l-0.868.844a14.529,14.529,0,0,0-1.29,1.969,19.425,19.425,0,0,0-1.407,2.883,16.2,16.2,0,0,0-1.383,5.3v1.055a7.775,7.775,0,0,0,.328,2.1A5.854,5.854,0,0,0,562.53,73a6.856,6.856,0,0,0,1.325,1.266,4.5,4.5,0,0,0,1.536.68,8.488,8.488,0,0,0,1.994.211h1.876a16.651,16.651,0,0,0,2.791-.281,11.007,11.007,0,0,0,1.371-.387,6.638,6.638,0,0,1,1.537-.34l0.914-.141a26.838,26.838,0,0,0,3.6-.633,9.487,9.487,0,0,0,2.9-1.383,11.467,11.467,0,0,0,2.732-2.426,8.34,8.34,0,0,0,1.443-3.152l0.633-2.016q0.188-.68,1.712-4.547t2.744-6.586q1.054-2.226,1.911-3.937t1.524-2.953q0.669-1.242,2.029-3.656t1.5-2.648l1.149-1.969h-7.786l-0.469,1.008q-0.165.3-1.829,3.293t-2.58,4.863q-0.28.586-1.618,3.727t-1.407,3.234l-1.454,2.6-0.282-4.148a28.337,28.337,0,0,0-.633-6.516,22.5,22.5,0,0,0-1.524-4.359,29.241,29.241,0,0,0-1.407-2.883l-0.469-.773-0.915.094q-1.266.047-2.251,0.094t-1.783.047q-0.75,0-3.471-.094l-1.1-.047-0.469.633q-1.571,1.875-1.969,2.3-0.447.539-2.7,2.883l-0.727.82,1.267-.141a26.241,26.241,0,0,1,3.072-.4q1.5-.164,3.213-0.234,0.655-.093.762-0.117a1.435,1.435,0,0,1,.293-0.023,1.6,1.6,0,0,1,.68.141,1.125,1.125,0,0,1,.387.586,2.172,2.172,0,0,1,.129.563l0.962,3.117a21.451,21.451,0,0,1,.515,2.848,31.82,31.82,0,0,1,.306,3.832q0,1.383-.071,2.531t-0.211,2.309q-0.141,1.16-.258,2.449l-0.141,1.1,0.915-.281q0.657-.164,1.067-0.293a6.5,6.5,0,0,1,.809-0.2q1.806-.328,2.064-0.328h1.407Z"/>
</svg>
